# xmcd
#
# Track frame offsets:
# 150
# 12660
# 24588
# 35988
# 46958
# 57090
# 69560
# 81975
# 93118
# 105575
#
# Disc length: 1521 seconds
#
#
# Revision: 2
# Processed by: cddbd v1.5.1PL0 Copyright (c) Steve Scherf et al.
# Submitted via: FreeRIP 2.80 
#
DISCID=8005ef0a
DTITLE=Marvin Gaye - That Stubborn Kinda' Fellow
DYEAR=1900
DGENRE=Soul
TTITLE0=Stubborn Kind Of Fellow
TTITLE1=Pride and Joy
TTITLE2=Hitch Hike
TTITLE3=Get My Hands On Some Lovin'
TTITLE4=Wherever I Lay My Hat
TTITLE5=Soldier's Plea
TTITLE6=It Hurt Me Too
TTITLE7=Taking My Time
TTITLE8=Hello There Angel
TTITLE9=I'm Yours You're Mine
EXTD=
EXTT0=
EXTT1=
EXTT2=
EXTT3=
EXTT4=
EXTT5=
EXTT6=
EXTT7=
EXTT8=
EXTT9=
PLAYORDER=
